<?xml version="1.0" encoding="UTF-8"?>
<svg width="24px" height="24px" viewBox="0 0 24 24" version="1.1" xmlns="http://www.w3.org/2000/svg" xmlns:xlink="http://www.w3.org/1999/xlink">
    <title>Weather Station</title>
    <g stroke="none" stroke-width="1" fill="none" fill-rule="evenodd">
        <circle fill="#3498DB" cx="12" cy="12" r="12"></circle>
        <path d="M12,5 C12.5522847,5 13,5.44771525 13,6 L13,12 C13,12.5522847 12.5522847,13 12,13 C11.4477153,13 11,12.5522847 11,12 L11,6 C11,5.44771525 11.4477153,5 12,5 Z" fill="#FFFFFF" fill-rule="nonzero"></path>
        <path d="M12,14 C12.5522847,14 13,14.4477153 13,15 C13,15.5522847 12.5522847,16 12,16 C11.4477153,16 11,15.5522847 11,15 C11,14.4477153 11.4477153,14 12,14 Z" fill="#FFFFFF" fill-rule="nonzero"></path>
        <path d="M7,9 C7.55228475,9 8,9.44771525 8,10 L8,12 C8,12.5522847 7.55228475,13 7,13 C6.44771525,13 6,12.5522847 6,12 L6,10 C6,9.44771525 6.44771525,9 7,9 Z" fill="#FFFFFF" fill-rule="nonzero"></path>
        <path d="M17,9 C17.5522847,9 18,9.44771525 18,10 L18,12 C18,12.5522847 17.5522847,13 17,13 C16.4477153,13 16,12.5522847 16,12 L16,10 C16,9.44771525 16.4477153,9 17,9 Z" fill="#FFFFFF" fill-rule="nonzero"></path>
        <path d="M9,17 L15,17 C15.5522847,17 16,17.4477153 16,18 C16,18.5522847 15.5522847,19 15,19 L9,19 C8.44771525,19 8,18.5522847 8,18 C8,17.4477153 8.44771525,17 9,17 Z" fill="#FFFFFF" fill-rule="nonzero"></path>
    </g>
</svg>
